<svg viewBox="0 0 1024 1024" version="1.1" xmlns="http://www.w3.org/2000/svg" desc="Created with imagetracer.js version 1.2.6" ><path fill="rgb(0,0,0)" stroke="rgb(0,0,0)" stroke-width="1" opacity="0" d="M 0 0 L 1024 0 L 1024 1024 L 0 1024 L 0 0 Z M 628 278 L 626 279 L 622 283 L 622 299 L 621 300 L 621 320 L 667 393 L 668 395 L 668 413 L 651 413 L 646 415 L 645 418 L 645 421 L 627 421 Q 621 424 623 433 L 540 433 L 539 433 L 539 413 L 535 409 L 482 409 L 482 361 L 481 359 L 478 356 L 340 356 L 340 342 L 339 340 L 335 336 L 105 336 L 103 337 L 99 342 L 99 555 L 101 558 L 104 559 L 123 559 L 123 601 L 128 605 L 159 605 L 159 685 L 133 685 L 131 686 L 127 691 L 127 731 L 132 736 L 921 736 L 923 735 L 925 732 L 925 540 L 920 535 L 896 535 L 896 516 L 921 516 L 924 514 L 925 512 L 925 405 L 912 391 L 903 382 L 759 382 L 755 387 L 755 413 L 711 413 L 711 395 L 712 393 L 758 320 L 758 285 L 756 280 L 754 279 L 629 279 L 628 278 Z M 342 354 L 342 355 L 342 354 Z M 667 411 L 667 412 L 667 411 Z M 713 411 L 713 412 L 713 411 Z M 158 606 L 158 607 L 158 606 Z M 158 683 L 158 684 L 158 683 Z " /><path fill="rgb(0,0,0)" stroke="rgb(0,0,0)" stroke-width="1" opacity="0" d="M 637 294 L 741.5 294 L 742 294.5 L 742 310 L 637.5 310 L 637 309.5 L 637 294 Z " /><path fill="rgb(0,0,0)" stroke="rgb(0,0,0)" stroke-width="1" opacity="0" d="M 643 324 L 737 324.5 L 700 385 L 679.5 385 L 679 383.5 L 653 342.5 L 643 324 Z " /><path fill="rgb(0,0,0)" stroke="rgb(0,0,0)" stroke-width="1" opacity="0" d="M 114 351 L 151.5 351 L 152 351.5 L 152 545 L 144.5 544 L 141.5 545 L 139.5 544 L 136.5 545 Q 135 542.5 129.5 544 L 127.5 545 Q 125.8 542.2 119.5 544 L 114 545 L 114 351 Z M 151 352 L 151 353 L 151 352 Z M 151 542 L 151 543 L 151 542 Z " /><path fill="rgb(0,0,0)" stroke="rgb(0,0,0)" stroke-width="1" opacity="0" d="M 168 351 L 324 351 L 324 545 L 168 545 L 168 351 Z M 323 352 L 323 353 L 323 352 Z M 196 393 L 192 395 L 188 401 L 188 495 L 190 499 L 194 501 L 293 501 L 295 500 L 298 496 L 298 400 L 297 398 L 292 393 L 196 393 Z M 323 542 L 323 543 L 323 542 Z " /><path fill="rgb(0,0,0)" stroke="rgb(0,0,0)" stroke-width="1" opacity="0" d="M 340 370 L 467 370 L 467 685 L 339 685 L 339 606.5 L 340 605.5 L 340 370 Z M 437 392 L 437 393 L 437 392 Z M 366 394 L 361 396 L 358 403 L 358 528 L 359 530 L 366 535 L 442 535 L 446 533 L 449 528 L 449 403 L 446 396 L 442 394 L 366 394 Z M 392 536 L 392 537 L 392 536 Z M 441 536 L 441 537 L 441 536 Z M 400 564 L 398 565 L 395 569 Q 394 576 399 578 L 444 578 L 446 577 L 448 574 L 447 567 L 444 564 L 400 564 Z M 401 590 L 396 592 L 394 597 L 395 602 L 400 605 L 444 605 Q 450 604 448 595 L 444 590 L 401 590 Z " /><path fill="rgb(0,0,0)" stroke="rgb(0,0,0)" stroke-width="1" opacity="0" d="M 769.5 396 L 896.5 396 L 911 410.5 L 910 415.5 L 910 417.5 L 910 499.5 L 911 502 L 769 501.5 L 770 500.5 L 770 397.5 L 769.5 396 Z M 796 420 L 794 421 L 790 427 L 792 433 L 795 434 L 886 434 L 889 430 L 888 423 L 885 420 L 796 420 Z M 798 444 L 798 445 L 798 444 Z M 796 446 L 794 447 L 790 453 L 791 458 L 796 461 L 884 461 L 889 457 Q 890 450 888 448 L 885 446 L 796 446 Z " /><path fill="rgb(0,0,0)" stroke="rgb(0,0,0)" stroke-width="1" opacity="0" d="M 683 400 L 696 400 L 696 413 L 683 413 L 683 400 Z M 685 411 L 685 412 L 685 411 Z " /><path fill="rgb(0,0,0)" stroke="rgb(0,0,0)" stroke-width="1" opacity="0" d="M 203 407 L 283 407 L 283 487 L 203 487 L 203 407 Z " /><path fill="rgb(0,0,0)" stroke="rgb(0,0,0)" stroke-width="1" opacity="0" d="M 373 408 L 434 408 L 434 446 L 373 446 L 373 408 Z M 375 444 L 375 445 L 375 444 Z " /><path fill="rgb(0,0,0)" stroke="rgb(0,0,0)" stroke-width="1" opacity="0" d="M 482 425 L 524 425 L 524 475 L 482 475 L 482 425 Z M 485 426 L 485 427 L 485 426 Z M 499 437 L 499 454 L 511 454 L 511 437 L 499 437 Z " /><path fill="rgb(0,0,0)" stroke="rgb(0,0,0)" stroke-width="1" opacity="0" d="M 660 427 L 755 427 L 755 480 L 660 480 L 660 427 Z " /><path fill="rgb(0,0,0)" stroke="rgb(0,0,0)" stroke-width="1" opacity="0" d="M 638 435 L 644.5 435 L 645 435.5 L 645 472 L 638.5 473 L 638 435 Z M 644 470 L 644 471 L 644 470 Z " /><path fill="rgb(0,0,0)" stroke="rgb(0,0,0)" stroke-width="1" opacity="0" d="M 539 447 L 541.5 448 L 543.5 448 L 615.5 448 L 616.5 447 L 621.5 448 L 623 447.5 L 623 460.5 L 622.5 461 L 539 461 L 539 447 Z " /><path fill="rgb(0,0,0)" stroke="rgb(0,0,0)" stroke-width="1" opacity="0" d="M 373 461 L 434 461 L 434 521 L 373 521 L 373 461 Z M 409 472 L 409 473 L 409 472 Z M 377 475 L 377 487 L 389 487 L 389 475 L 377 475 Z M 397 475 L 397 487 L 409 487 L 409 475 L 397 475 Z M 417 475 L 417 487 L 430 487 L 430 475 L 417 475 Z M 432 478 L 432 479 L 432 478 Z M 377 497 L 377 510 L 389 510 L 389 497 L 377 497 Z M 397 497 L 397 510 L 409 510 L 409 497 L 397 497 Z M 419 497 L 417 499 L 417 510 L 430 510 L 430 499 L 429 497 L 419 497 Z " /><path fill="rgb(0,0,0)" stroke="rgb(0,0,0)" stroke-width="1" opacity="0" d="M 539 476 L 622.5 476 L 623 476.5 L 623 483.5 L 626.5 487 L 645 487 Q 644.3 491.7 648.5 493 L 650.5 494 L 669 494 L 669 534.5 L 668.5 535 L 516 535 L 516 489 L 535.5 489 L 539 485.5 L 539 476 Z " /><path fill="rgb(0,0,0)" stroke="rgb(0,0,0)" stroke-width="1" opacity="0" d="M 482 489 L 501 489 L 501 535 L 482 535 L 482 489 Z " /><path fill="rgb(0,0,0)" stroke="rgb(0,0,0)" stroke-width="1" opacity="0" d="M 684 494 L 754.5 494 L 755 494.5 L 755 511.5 L 760.5 516 L 779 516 L 779 534.5 L 778.5 535 L 684 535 L 684 494 Z " /><path fill="rgb(0,0,0)" stroke="rgb(0,0,0)" stroke-width="1" opacity="0" d="M 794 516 L 880.5 516 L 881 516.5 L 881 534 L 794.5 534 L 794 533.5 L 794 516 Z M 796 532 L 796 533 L 796 532 Z M 880 532 L 880 533 L 880 532 Z " /><path fill="rgb(0,0,0)" stroke="rgb(0,0,0)" stroke-width="1" opacity="0" d="M 482.5 549 L 483.5 550 L 497.5 550 L 500.5 549 L 910.5 549 L 911 550.5 L 910 551.5 L 910 575.5 L 910 579.5 L 910 680.5 L 911 681.5 L 910 683.5 L 910.5 685 L 482.5 685 L 482 684.5 L 482.5 549 Z M 854 570 L 852 571 L 848 576 L 849 582 L 853 584 L 886 584 L 890 579 L 888 573 L 885 570 L 854 570 Z M 643 571 L 640 572 L 638 576 L 638 581 L 644 585 L 674 585 L 679 581 L 678 574 L 675 571 L 643 571 Z " /><path fill="rgb(0,0,0)" stroke="rgb(0,0,0)" stroke-width="1" opacity="0" d="M 137.5 559 L 323.5 559 L 324 559.5 L 324 590 L 138.5 590 L 138 589.5 L 138 560.5 L 137.5 559 Z M 140 588 L 140 589 L 140 588 Z M 323 588 L 323 589 L 323 588 Z " /><path fill="rgb(0,0,0)" stroke="rgb(0,0,0)" stroke-width="1" opacity="0" d="M 174 605 L 324 605 L 324 685 L 174 685 L 174 605 Z M 176 606 L 176 607 L 176 606 Z M 323 606 L 323 607 L 323 606 Z M 323 683 L 323 684 L 323 683 Z " /><path fill="rgb(0,0,0)" stroke="rgb(0,0,0)" stroke-width="1" opacity="0" d="M 142 700 L 911 700.5 L 911 702.5 Q 908.5 706 910 713.5 L 910 715.5 L 911 718.5 L 910.5 721 L 142.5 721 L 142 720.5 L 142 700 Z M 144 701 L 144 702 L 144 701 Z M 144 719 L 144 720 L 144 719 Z M 909 719 L 909 720 L 909 719 Z " /><path fill="rgb(13,13,13)" stroke="rgb(13,13,13)" stroke-width="1" opacity="1" d="M 626.5 279 L 752.5 279 L 756 281.5 L 757 283.5 L 757 320.5 L 710 394.5 L 710 414 L 755 414 L 755 387.5 L 758.5 383 L 760.5 382 L 901.5 382 L 925 404.5 L 925 510.5 L 922.5 514 L 918.5 516 L 896 516 L 896 535 L 919.5 535 L 924 538.5 L 925 540.5 L 925 730.5 L 921.5 735 L 919.5 736 L 132.5 736 L 129 733.5 L 128 731.5 L 128 689.5 Q 129.9 685.4 135.5 685 L 136.5 686 L 160 686 L 160 604 L 127.5 604 L 124 601.5 L 123 599.5 L 123 559 L 104.5 559 L 100 555.5 L 100 340.5 L 103.5 337 L 335.5 337 L 339 340.5 L 339 356.5 L 339.5 357 L 465.5 357 L 466.5 356 L 475.5 356 L 481 359.5 L 482 361.5 L 482 409 L 533.5 409 L 539 413.5 L 539 432.5 L 539.5 433 L 623 433 Q 621.4 423.8 627.5 421 L 644.5 421 L 645 418.5 L 647.5 415 L 649.5 414 L 669 414 L 669 395.5 L 667 391.5 L 622 320.5 L 622 283.5 L 624.5 280 L 626.5 279 Z M 637 294 L 637 310 L 638 310 L 742 310 L 742 295 L 742 294 L 637 294 Z M 642 323 L 679 385 L 680 386 L 699 386 L 738 324 L 642 323 Z M 115 350 Q 112 351 114 353 L 114 545 L 115 545 L 153 545 L 153 351 L 153 350 L 115 350 Z M 168 350 L 168 545 L 325 545 L 325 350 L 168 350 Z M 339 370 L 339 686 L 468 686 L 468 370 L 339 370 Z M 769 396 L 769 502 L 911 502 L 911 410 L 898 396 L 769 396 Z M 682 400 L 682 413 L 684 414 L 696 414 L 696 400 L 682 400 Z M 482 424 L 482 475 L 524 475 L 524 424 L 482 424 Z M 660 427 L 660 480 L 754 480 L 755 481 L 755 427 L 660 427 Z M 638 435 L 638 473 L 639 473 L 646 473 L 646 436 L 646 435 L 638 435 Z M 539 447 L 539 462 L 541 461 L 622 461 L 623 462 Q 625 461 623 460 L 623 448 L 623 447 L 539 447 Z M 539 475 Q 541 486 535 489 L 516 489 L 516 535 L 669 535 L 669 535 L 669 494 L 653 494 L 648 492 L 645 489 L 645 487 L 628 487 L 623 482 L 624 477 L 623 475 L 539 475 Z M 482 489 L 482 535 L 502 535 L 502 489 L 482 489 Z M 683 494 L 683 535 L 779 535 L 779 535 L 779 516 L 762 516 L 758 514 L 755 511 L 755 495 L 755 494 L 683 494 Z M 794 516 L 794 535 L 795 535 L 882 535 L 882 517 L 882 516 L 794 516 Z M 482 549 L 482 686 L 483 686 L 911 686 L 911 550 L 911 549 L 482 549 Z M 137 559 L 137 591 L 138 591 L 325 591 L 325 560 L 325 559 L 137 559 Z M 175 604 L 173 606 L 174 607 L 174 684 Q 172 685 175 686 L 324 686 L 325 685 L 325 604 L 175 604 Z M 143 699 L 141 701 L 141 722 L 142 722 L 911 722 L 911 700 L 911 699 L 143 699 Z " /><path fill="rgb(13,13,13)" stroke="rgb(13,13,13)" stroke-width="1" opacity="1" d="M 197.5 393 L 288.5 393 L 296 396.5 L 298 400.5 L 298 493.5 L 293.5 500 L 291.5 501 L 194.5 501 L 190 497.5 L 189 495.5 L 189 399.5 L 193.5 394 L 197.5 393 Z M 203 407 L 203 488 L 207 487 L 280 487 L 283 488 L 284 487 L 284 407 L 203 407 Z " /><path fill="rgb(13,13,13)" stroke="rgb(13,13,13)" stroke-width="1" opacity="1" d="M 364.5 395 L 442.5 395 L 447 398.5 L 448 400.5 L 448 528.5 L 444.5 533 L 442.5 534 L 364.5 534 L 361 531.5 L 359 527.5 L 359 401.5 L 362.5 396 L 364.5 395 Z M 373 408 L 373 447 L 434 447 L 434 408 L 373 408 Z M 373 460 L 373 521 L 434 521 L 434 460 L 373 460 Z " /><path fill="rgb(13,13,13)" stroke="rgb(13,13,13)" stroke-width="1" opacity="1" d="M 796.5 420 L 882.5 420 L 888 423.5 L 889 428.5 L 884.5 434 L 795.5 434 L 792 431.5 L 791 425.5 L 794.5 421 L 796.5 420 Z " /><path fill="rgb(13,13,13)" stroke="rgb(13,13,13)" stroke-width="1" opacity="1" d="M 500 437 L 511 437 L 511 453 L 500 453 L 500 437 Z " /><path fill="rgb(13,13,13)" stroke="rgb(13,13,13)" stroke-width="1" opacity="1" d="M 794.5 447 L 884.5 447 L 888 449.5 L 889 454.5 L 886.5 459 L 884.5 460 L 794.5 460 Q 790.1 458.4 791 451.5 L 794.5 447 Z " /><path fill="rgb(13,13,13)" stroke="rgb(13,13,13)" stroke-width="1" opacity="1" d="M 377 475 L 388 475 L 388 486 L 377 486 L 377 475 Z " /><path fill="rgb(13,13,13)" stroke="rgb(13,13,13)" stroke-width="1" opacity="1" d="M 397.5 475 L 409 475 L 409 486 L 398 486 L 398 476.5 L 397.5 475 Z " /><path fill="rgb(13,13,13)" stroke="rgb(13,13,13)" stroke-width="1" opacity="1" d="M 418 475 L 429 475 L 429 486 L 418 486 L 418 475 Z " /><path fill="rgb(13,13,13)" stroke="rgb(13,13,13)" stroke-width="1" opacity="1" d="M 377 498 L 389 498.5 L 388 499.5 L 388 509 L 377 509 L 377 498 Z " /><path fill="rgb(13,13,13)" stroke="rgb(13,13,13)" stroke-width="1" opacity="1" d="M 397.5 498 L 409 498 L 409 509 L 397 508.5 L 398 507.5 L 398 499.5 L 397.5 498 Z " /><path fill="rgb(13,13,13)" stroke="rgb(13,13,13)" stroke-width="1" opacity="1" d="M 418 498 L 429 498 L 429 509 L 418 509 L 418 498 Z " /><path fill="rgb(13,13,13)" stroke="rgb(13,13,13)" stroke-width="1" opacity="1" d="M 400.5 564 L 442.5 564 L 447 567.5 L 448 572.5 L 444.5 577 L 442.5 578 L 400.5 578 L 396 574.5 L 395 569.5 L 398.5 565 L 400.5 564 Z " /><path fill="rgb(13,13,13)" stroke="rgb(13,13,13)" stroke-width="1" opacity="1" d="M 643.5 571 L 673.5 571 L 678 574.5 L 679 578.5 L 676.5 583 L 674.5 584 L 642.5 584 L 640 583 Q 638.3 580.6 639 574.5 L 643.5 571 Z " /><path fill="rgb(13,13,13)" stroke="rgb(13,13,13)" stroke-width="1" opacity="1" d="M 852.5 571 L 885.5 571 L 888 573.5 L 889 579.5 L 886.5 583 L 884.5 584 L 853.5 584 L 849 580.5 Q 848.3 574.4 850 572 L 852.5 571 Z " /><path fill="rgb(13,13,13)" stroke="rgb(13,13,13)" stroke-width="1" opacity="1" d="M 399.5 591 L 443.5 591 L 446 592 L 448 598.5 L 444.5 604 L 441.5 605 L 400.5 605 L 395 600.5 Q 394 594 397.5 592 L 399.5 591 Z " /><path fill="rgb(78,77,78)" stroke="rgb(78,77,78)" stroke-width="1" opacity="1" d="M 757.5 284 L 758 319.5 L 757 319.5 L 757.5 284 Z " /><path fill="rgb(78,77,78)" stroke="rgb(78,77,78)" stroke-width="1" opacity="1" d="M 621.5 299 L 622 319.5 L 621 319.5 L 621.5 299 Z " /><path fill="rgb(78,77,78)" stroke="rgb(78,77,78)" stroke-width="1" opacity="1" d="M 642 323 L 738 323.5 L 643.5 324 L 642.5 325 L 642 323 Z " /><path fill="rgb(78,77,78)" stroke="rgb(78,77,78)" stroke-width="1" opacity="1" d="M 104.5 336 L 335 336.5 L 104.5 337 L 104.5 336 Z " /><path fill="rgb(78,77,78)" stroke="rgb(78,77,78)" stroke-width="1" opacity="1" d="M 99.5 341 L 100 554.5 L 99 554.5 L 99.5 341 Z " /><path fill="rgb(78,77,78)" stroke="rgb(78,77,78)" stroke-width="1" opacity="1" d="M 339.5 341 L 340 356 L 466 356.5 L 339 357 L 339.5 341 Z " /><path fill="rgb(78,77,78)" stroke="rgb(78,77,78)" stroke-width="1" opacity="1" d="M 114.5 350 L 152.5 350 L 153 350.5 L 153 544.5 L 152 544.5 L 152 351.5 L 151.5 351 L 114.5 351 L 113 351.5 L 114.5 350 Z " /><path fill="rgb(78,77,78)" stroke="rgb(78,77,78)" stroke-width="1" opacity="1" d="M 168.5 350 L 325 350 L 325 544.5 L 324 544.5 L 324 351 L 168.5 351 L 168.5 350 Z " /><path fill="rgb(78,77,78)" stroke="rgb(78,77,78)" stroke-width="1" opacity="1" d="M 476.5 356 L 478 356.5 L 476.5 357 L 476.5 356 Z " /><path fill="rgb(78,77,78)" stroke="rgb(78,77,78)" stroke-width="1" opacity="1" d="M 339.5 370 L 340 605.5 L 339 605.5 L 339.5 370 Z " /><path fill="rgb(78,77,78)" stroke="rgb(78,77,78)" stroke-width="1" opacity="1" d="M 467.5 370 L 468 686 L 339 685.5 L 467 685 L 467.5 370 Z " /><path fill="rgb(78,77,78)" stroke="rgb(78,77,78)" stroke-width="1" opacity="1" d="M 758.5 382 L 760 382.5 L 756.5 385 L 758.5 382 Z " /><path fill="rgb(78,77,78)" stroke="rgb(78,77,78)" stroke-width="1" opacity="1" d="M 679.5 385 L 699 385.5 L 679.5 386 L 679.5 385 Z " /><path fill="rgb(78,77,78)" stroke="rgb(78,77,78)" stroke-width="1" opacity="1" d="M 195.5 393 L 197 393.5 L 195.5 394 L 195.5 393 Z " /><path fill="rgb(78,77,78)" stroke="rgb(78,77,78)" stroke-width="1" opacity="1" d="M 289.5 393 L 292 393.5 L 289.5 394 L 289.5 393 Z " /><path fill="rgb(78,77,78)" stroke="rgb(78,77,78)" stroke-width="1" opacity="1" d="M 711.5 393 L 711 394.5 L 711 413 L 754.5 413 L 754.5 414 L 710 414 L 710 394.5 L 711.5 393 Z " /><path fill="rgb(78,77,78)" stroke="rgb(78,77,78)" stroke-width="1" opacity="1" d="M 365.5 394 L 442 394.5 L 365.5 395 L 365.5 394 Z " /><path fill="rgb(78,77,78)" stroke="rgb(78,77,78)" stroke-width="1" opacity="1" d="M 668.5 395 L 669 414 L 650 413.5 L 668 413 L 668.5 395 Z " /><path fill="rgb(78,77,78)" stroke="rgb(78,77,78)" stroke-width="1" opacity="1" d="M 769.5 397 L 770 500.5 L 769 500.5 L 769.5 397 Z " /><path fill="rgb(78,77,78)" stroke="rgb(78,77,78)" stroke-width="1" opacity="1" d="M 359.5 399 L 360 400.5 L 359 400.5 L 359.5 399 Z " /><path fill="rgb(78,77,78)" stroke="rgb(78,77,78)" stroke-width="1" opacity="1" d="M 188.5 400 L 189 494.5 L 188 494.5 L 188.5 400 Z " /><path fill="rgb(78,77,78)" stroke="rgb(78,77,78)" stroke-width="1" opacity="1" d="M 682.5 400 L 683 413 L 696 413.5 L 683.5 414 L 682 412.5 L 682.5 400 Z " /><path fill="rgb(78,77,78)" stroke="rgb(78,77,78)" stroke-width="1" opacity="1" d="M 358.5 402 L 359 527.5 L 361 530.5 L 359 529.5 L 358 527.5 L 358.5 402 Z " /><path fill="rgb(78,77,78)" stroke="rgb(78,77,78)" stroke-width="1" opacity="1" d="M 448.5 402 L 449 527.5 L 448 527.5 L 448.5 402 Z " /><path fill="rgb(78,77,78)" stroke="rgb(78,77,78)" stroke-width="1" opacity="1" d="M 283.5 407 L 284 486.5 L 282 487.5 L 283 486.5 L 283.5 407 Z " /><path fill="rgb(78,77,78)" stroke="rgb(78,77,78)" stroke-width="1" opacity="1" d="M 910.5 411 L 911 415.5 L 910 415.5 L 910.5 411 Z " /><path fill="rgb(78,77,78)" stroke="rgb(78,77,78)" stroke-width="1" opacity="1" d="M 910.5 417 L 911 499.5 L 910 499.5 L 910.5 417 Z " /><path fill="rgb(78,77,78)" stroke="rgb(78,77,78)" stroke-width="1" opacity="1" d="M 883.5 420 L 885 420.5 L 883.5 421 L 883.5 420 Z " /><path fill="rgb(78,77,78)" stroke="rgb(78,77,78)" stroke-width="1" opacity="1" d="M 482.5 424 L 524 424.5 L 482.5 425 L 482.5 424 Z " /><path fill="rgb(78,77,78)" stroke="rgb(78,77,78)" stroke-width="1" opacity="1" d="M 790.5 426 L 791 428.5 L 790 428.5 L 790.5 426 Z " /><path fill="rgb(78,77,78)" stroke="rgb(78,77,78)" stroke-width="1" opacity="1" d="M 645.5 435 L 646 473 L 639 472.5 L 645 472 L 645.5 435 Z " /><path fill="rgb(78,77,78)" stroke="rgb(78,77,78)" stroke-width="1" opacity="1" d="M 499.5 437 L 500 453 L 511 453.5 L 499 454 L 499.5 437 Z " /><path fill="rgb(78,77,78)" stroke="rgb(78,77,78)" stroke-width="1" opacity="1" d="M 373.5 446 L 434 446.5 L 373.5 447 L 373.5 446 Z " /><path fill="rgb(78,77,78)" stroke="rgb(78,77,78)" stroke-width="1" opacity="1" d="M 795.5 446 L 884.5 446 L 886 447.5 L 884.5 447 L 795.5 447 L 795.5 446 Z " /><path fill="rgb(78,77,78)" stroke="rgb(78,77,78)" stroke-width="1" opacity="1" d="M 543.5 447 L 616 447.5 L 543.5 448 L 543.5 447 Z " /><path fill="rgb(78,77,78)" stroke="rgb(78,77,78)" stroke-width="1" opacity="1" d="M 617.5 447 L 622 447.5 L 617.5 448 L 617.5 447 Z " /><path fill="rgb(78,77,78)" stroke="rgb(78,77,78)" stroke-width="1" opacity="1" d="M 793.5 447 L 792 449.5 L 791.5 451 L 791 449.5 L 793.5 447 Z " /><path fill="rgb(78,77,78)" stroke="rgb(78,77,78)" stroke-width="1" opacity="1" d="M 790.5 452 Q 790.6 457.4 794 459.5 L 791 457.5 L 790.5 452 Z " /><path fill="rgb(78,77,78)" stroke="rgb(78,77,78)" stroke-width="1" opacity="1" d="M 888.5 455 L 889 456.5 L 888 456.5 L 888.5 455 Z " /><path fill="rgb(78,77,78)" stroke="rgb(78,77,78)" stroke-width="1" opacity="1" d="M 373.5 460 L 434 460.5 L 373.5 461 L 373.5 460 Z " /><path fill="rgb(78,77,78)" stroke="rgb(78,77,78)" stroke-width="1" opacity="1" d="M 795.5 460 L 884 460.5 L 795.5 461 L 795.5 460 Z " /><path fill="rgb(78,77,78)" stroke="rgb(78,77,78)" stroke-width="1" opacity="1" d="M 388.5 475 L 389 487 L 377 486.5 L 388 486 L 388.5 475 Z " /><path fill="rgb(78,77,78)" stroke="rgb(78,77,78)" stroke-width="1" opacity="1" d="M 417.5 475 L 418 486 L 429 486 L 429 475.5 L 430 475.5 L 430 487 L 417 487 L 417.5 475 Z " /><path fill="rgb(78,77,78)" stroke="rgb(78,77,78)" stroke-width="1" opacity="1" d="M 539.5 475 L 622.5 475 L 624 476.5 L 622.5 476 L 539.5 476 L 539.5 475 Z " /><path fill="rgb(78,77,78)" stroke="rgb(78,77,78)" stroke-width="1" opacity="1" d="M 397.5 476 L 398 486 L 409 486.5 L 397 487 L 397.5 476 Z " /><path fill="rgb(78,77,78)" stroke="rgb(78,77,78)" stroke-width="1" opacity="1" d="M 623.5 482 L 627 486.5 L 623 483.5 L 623.5 482 Z " /><path fill="rgb(78,77,78)" stroke="rgb(78,77,78)" stroke-width="1" opacity="1" d="M 538.5 484 L 539 485.5 L 535 488.5 L 538.5 484 Z " /><path fill="rgb(78,77,78)" stroke="rgb(78,77,78)" stroke-width="1" opacity="1" d="M 203.5 487 L 206 487.5 L 203.5 488 L 203.5 487 Z " /><path fill="rgb(78,77,78)" stroke="rgb(78,77,78)" stroke-width="1" opacity="1" d="M 501.5 489 L 502 534.5 L 501 534.5 L 501.5 489 Z " /><path fill="rgb(78,77,78)" stroke="rgb(78,77,78)" stroke-width="1" opacity="1" d="M 650.5 493 L 652 493.5 L 650.5 494 L 650.5 493 Z " /><path fill="rgb(78,77,78)" stroke="rgb(78,77,78)" stroke-width="1" opacity="1" d="M 297.5 494 L 298 495.5 L 297 495.5 L 297.5 494 Z " /><path fill="rgb(78,77,78)" stroke="rgb(78,77,78)" stroke-width="1" opacity="1" d="M 683.5 494 L 684 534.5 L 683 534.5 L 683.5 494 Z " /><path fill="rgb(78,77,78)" stroke="rgb(78,77,78)" stroke-width="1" opacity="1" d="M 377.5 497 L 389 497.5 L 377.5 498 L 377.5 497 Z " /><path fill="rgb(78,77,78)" stroke="rgb(78,77,78)" stroke-width="1" opacity="1" d="M 397.5 497 L 409 497.5 L 397.5 498 L 397.5 497 Z " /><path fill="rgb(78,77,78)" stroke="rgb(78,77,78)" stroke-width="1" opacity="1" d="M 418.5 497 L 428.5 497 L 430 498.5 L 430 510 L 417 510 L 417 498.5 L 418.5 497 Z M 418 498 L 418 509 L 429 509 L 429 498 L 418 498 Z " /><path fill="rgb(78,77,78)" stroke="rgb(78,77,78)" stroke-width="1" opacity="1" d="M 388.5 499 L 389 510 L 377 509.5 L 388 509 L 388.5 499 Z " /><path fill="rgb(78,77,78)" stroke="rgb(78,77,78)" stroke-width="1" opacity="1" d="M 397.5 499 L 398 507.5 L 397 507.5 L 397.5 499 Z " /><path fill="rgb(78,77,78)" stroke="rgb(78,77,78)" stroke-width="1" opacity="1" d="M 397.5 509 L 409 509.5 L 397.5 510 L 397.5 509 Z " /><path fill="rgb(78,77,78)" stroke="rgb(78,77,78)" stroke-width="1" opacity="1" d="M 921.5 514 L 920.5 516 L 919 515.5 L 921.5 514 Z " /><path fill="rgb(78,77,78)" stroke="rgb(78,77,78)" stroke-width="1" opacity="1" d="M 881.5 516 L 882 535 L 794 534.5 L 881 534 L 881.5 516 Z " /><path fill="rgb(78,77,78)" stroke="rgb(78,77,78)" stroke-width="1" opacity="1" d="M 365.5 534 L 442 534.5 L 365.5 535 L 365.5 534 Z " /><path fill="rgb(78,77,78)" stroke="rgb(78,77,78)" stroke-width="1" opacity="1" d="M 119.5 544 L 127 544.5 L 119.5 545 L 119.5 544 Z " /><path fill="rgb(78,77,78)" stroke="rgb(78,77,78)" stroke-width="1" opacity="1" d="M 129.5 544 L 136 544.5 L 129.5 545 L 129.5 544 Z " /><path fill="rgb(78,77,78)" stroke="rgb(78,77,78)" stroke-width="1" opacity="1" d="M 139.5 544 L 141 544.5 L 139.5 545 L 139.5 544 Z " /><path fill="rgb(78,77,78)" stroke="rgb(78,77,78)" stroke-width="1" opacity="1" d="M 144.5 544 L 149 544.5 L 144.5 545 L 144.5 544 Z " /><path fill="rgb(78,77,78)" stroke="rgb(78,77,78)" stroke-width="1" opacity="1" d="M 483.5 549 L 498 549.5 L 483.5 550 L 483.5 549 Z " /><path fill="rgb(78,77,78)" stroke="rgb(78,77,78)" stroke-width="1" opacity="1" d="M 910.5 551 L 911 575.5 L 910 575.5 L 910.5 551 Z " /><path fill="rgb(78,77,78)" stroke="rgb(78,77,78)" stroke-width="1" opacity="1" d="M 324.5 559 L 325 591 L 137.5 591 L 137 590.5 L 137 560.5 L 138 560.5 L 138 589.5 L 138.5 590 L 324 590 L 324.5 559 Z " /><path fill="rgb(78,77,78)" stroke="rgb(78,77,78)" stroke-width="1" opacity="1" d="M 853.5 570 L 885 570.5 L 853.5 571 L 853.5 570 Z " /><path fill="rgb(78,77,78)" stroke="rgb(78,77,78)" stroke-width="1" opacity="1" d="M 396.5 575 L 400 577.5 L 398.5 578 L 396.5 575 Z " /><path fill="rgb(78,77,78)" stroke="rgb(78,77,78)" stroke-width="1" opacity="1" d="M 638.5 575 L 640 581.5 L 638 580.5 L 638.5 575 Z " /><path fill="rgb(78,77,78)" stroke="rgb(78,77,78)" stroke-width="1" opacity="1" d="M 678.5 575 L 679 577.5 L 678 577.5 L 678.5 575 Z " /><path fill="rgb(78,77,78)" stroke="rgb(78,77,78)" stroke-width="1" opacity="1" d="M 848.5 575 L 849 579.5 L 848 579.5 L 848.5 575 Z " /><path fill="rgb(78,77,78)" stroke="rgb(78,77,78)" stroke-width="1" opacity="1" d="M 889.5 576 L 890 578.5 L 889 578.5 L 889.5 576 Z " /><path fill="rgb(78,77,78)" stroke="rgb(78,77,78)" stroke-width="1" opacity="1" d="M 678.5 579 L 679 580.5 L 678 580.5 L 678.5 579 Z " /><path fill="rgb(78,77,78)" stroke="rgb(78,77,78)" stroke-width="1" opacity="1" d="M 910.5 579 L 911 680.5 L 910 680.5 L 910.5 579 Z " /><path fill="rgb(78,77,78)" stroke="rgb(78,77,78)" stroke-width="1" opacity="1" d="M 643.5 584 L 674 584.5 L 643.5 585 L 643.5 584 Z " /><path fill="rgb(78,77,78)" stroke="rgb(78,77,78)" stroke-width="1" opacity="1" d="M 400.5 590 L 443.5 590 L 445 591.5 L 443.5 591 L 400.5 591 L 400.5 590 Z " /><path fill="rgb(78,77,78)" stroke="rgb(78,77,78)" stroke-width="1" opacity="1" d="M 446.5 593 L 448 595.5 L 447 595.5 L 446.5 593 Z " /><path fill="rgb(78,77,78)" stroke="rgb(78,77,78)" stroke-width="1" opacity="1" d="M 394.5 596 L 395 598.5 L 394 598.5 L 394.5 596 Z " /><path fill="rgb(78,77,78)" stroke="rgb(78,77,78)" stroke-width="1" opacity="1" d="M 447.5 599 L 448 600.5 L 447 600.5 L 447.5 599 Z " /><path fill="rgb(78,77,78)" stroke="rgb(78,77,78)" stroke-width="1" opacity="1" d="M 126.5 603 L 127.5 604 L 160 604 L 160 685.5 L 159.5 686 L 136.5 686 L 136.5 685 L 158.5 685 L 159 684.5 L 159 605 L 127.5 605 L 126.5 603 Z " /><path fill="rgb(78,77,78)" stroke="rgb(78,77,78)" stroke-width="1" opacity="1" d="M 174.5 604 L 325 604 L 325 684.5 L 323.5 686 L 174.5 686 L 173.5 684 L 174.5 685 L 324 685 L 324 605 L 174.5 605 L 173 605.5 L 174.5 604 Z " /><path fill="rgb(78,77,78)" stroke="rgb(78,77,78)" stroke-width="1" opacity="1" d="M 442.5 604 L 444 604.5 L 442.5 605 L 442.5 604 Z " /><path fill="rgb(78,77,78)" stroke="rgb(78,77,78)" stroke-width="1" opacity="1" d="M 910.5 682 L 911 683.5 L 910 683.5 L 910.5 682 Z " /><path fill="rgb(78,77,78)" stroke="rgb(78,77,78)" stroke-width="1" opacity="1" d="M 132.5 685 L 134 685.5 L 132.5 686 L 132.5 685 Z " /><path fill="rgb(78,77,78)" stroke="rgb(78,77,78)" stroke-width="1" opacity="1" d="M 482.5 685 L 911 685.5 L 482.5 686 L 482.5 685 Z " /><path fill="rgb(78,77,78)" stroke="rgb(78,77,78)" stroke-width="1" opacity="1" d="M 127.5 690 L 128 730.5 L 127 730.5 L 127.5 690 Z " /><path fill="rgb(78,77,78)" stroke="rgb(78,77,78)" stroke-width="1" opacity="1" d="M 142.5 699 L 911 699.5 L 142 700 L 142 720.5 L 142.5 721 L 910.5 721 L 910.5 722 L 141.5 722 L 141 721.5 L 141 700.5 L 142.5 699 Z " /><path fill="rgb(78,77,78)" stroke="rgb(78,77,78)" stroke-width="1" opacity="1" d="M 910.5 704 L 911 713.5 L 910 713.5 L 910.5 704 Z " /><path fill="rgb(78,77,78)" stroke="rgb(78,77,78)" stroke-width="1" opacity="1" d="M 910.5 715 L 911 717.5 L 910 717.5 L 910.5 715 Z " /></svg>